<mxfile host="app.diagrams.net" modified="2024-04-04T14:26:33.047Z" agent="Mozilla/5.0 (Windows NT 10.0; Win64; x64) AppleWebKit/537.36 (KHTML, like Gecko) Chrome/123.0.0.0 Safari/537.36" etag="LUJ4YXDgjnvVqt-koJda" version="24.2.2" type="device">
  <diagram name="Page-1" id="0ccewbWPcFCqzfCo2YNI">
    <mxGraphModel dx="1100" dy="543" grid="1" gridSize="10" guides="1" tooltips="1" connect="1" arrows="1" fold="1" page="1" pageScale="1" pageWidth="1600" pageHeight="900" math="0" shadow="0">
      <root>
        <mxCell id="0" />
        <mxCell id="1" parent="0" />
        <mxCell id="ofSnRiUOqoa81dkVLpD3-1" value="" style="rounded=0;whiteSpace=wrap;html=1;" parent="1" vertex="1">
          <mxGeometry x="160" y="150" width="660" height="350" as="geometry" />
        </mxCell>
        <mxCell id="ofSnRiUOqoa81dkVLpD3-2" value="Assignments" style="rounded=1;whiteSpace=wrap;html=1;" parent="1" vertex="1">
          <mxGeometry x="360" y="170" width="250" height="30" as="geometry" />
        </mxCell>
        <mxCell id="ofSnRiUOqoa81dkVLpD3-3" value="" style="shape=image;verticalLabelPosition=bottom;labelBackgroundColor=default;verticalAlign=top;aspect=fixed;imageAspect=0;image=data:image/png,iVBORw0KGgoAAAANSUhEUgAAAQAAAAEACAYAAABccqhmAAAACXBIWXMAAAsTAAALEwEAmpwYAAAVf0lEQVR4nO2debBXxZXHv4BgBCNRUBHLBcZEJbJpnMTRmowVXHGNMaMxiVtGnaAhIxNREUSz6GQcIoosAqImFSvOZKKiEhY1CKiZMSqyqLijf7AooGGV5U2dmfObevXyHvbpu3Tf299PVf+Rirzfud3nnNu3+ywAIYQQQgghhBBCCCGEEEIIIYQQQgghhBBCCImD/QAcCeAkAN8CcBWA0QDuBDAVwIM6pgOY3WJMb/b/T9V/M1r/hvytEwEM1N8ghASgHYBeAM4EcA2ACQBmAHgFwCYATSUN+a2lAB4HMF5lOQPAwdQKQvKhg75xr1BDnw/goxKN3HesU1knqOwD9FkIITvhswBO0G33LAAfR2DMeQ15lpkAbgQwCMDu1ARCgN4Ahuo3+JYIDLWssQ3A8+rsjtJPG0Jqz64ATgcwBcD7ERhiLOM9AJMBDAbQKfQiEZIn8v17HICxAFZFYGyxj7UA7ldHSWdAKsuXAdwN4MMIjKqq4wM9TPxS6MUkxIWuAC4D8EIExlO3sQTAcADdqIokNiT45l4AGyMwlLqPDQCm6RUpIcFop4dWT0ZgFK2dsq/UYJ15AB7S6L5JehZxq44ROhr/e6z+N1P138zTv7FS/2ZTZGMOgFN4i0DKPsn/nhpGSOVfodeHEwFcC+A8AF8B0KPAZ5cw4GMAnA/gOnUWs9VBhJyLxQAu4aEhKZKO+n2/PICCv6KfGFdrIM0+ES71vhrINAzAfQBeDTBP7wC4FMAuoSeD1AdRposAvFWSEm/RrfetehXWHdVlb80R+LmGB39S0hy+DuA7DEEmWTkHwGslvbkmaJLP7jUPdz5bPx3eLWnnJL9HiAlJYHmqYOV8Ub/dD094bb4I4HoALxU8108A6Bv6YUn8dNOT8G0F3mVL/PthoR80QnppXsT8guZ+u0YYxnh+QgLTHsCVmspaRGjrXbqrIO5xFeMLWo81mqbcjotBoFvwBQUomrzJLgTQmdPsTWc9gC1ifZ4GcCjXJu1rPQkt3ZzzNnO65gGQfBmgW/g8bxI+0dsWJh0lqEyLclQkqdTzrwAOCP1gCXAQgDE5F0xZCKBf6AcjxdNOA1Xyeuuv00M9SQIi5fI5ADfn6Ag2Afghzwbqi0SqPZaTsqzX2wKeKIdnL3XCedVLnA2gZ+iHIvlypuaW5/HNeLtGuJG4EGd8R05nBKsAnBb6gUg+1XhG6+FcHm8GCVwhcfMFPYjNut479ICQFY0rHNQzMwdFkFBgvg2qxyDNEsy6/k/yU696DMwheYdXRNUnr6ve5QCODv0wxI1v5tAlh0Ei9Qv2yhpivFGTw0jEDNdvN99FlpNkhonWN9x7SMZrw+16jUwio4PG22fx8M8BOCT0g5DCOVjrLTRlGNLDgEVHIsoxn5FhMbcCGMnT3qQQ470pY9bnozWv3VAJ9tQ3t+8ivsG4/aQ5FsDbGfTnGY1IJIECP17MsHiPqQMhabMHgN9l0CPpAcHAsJLpkSGZpxHgIYdChDRyRIZnCBiT0mP7/+9fIqVkg72RoRiE1JEnpDVO0wIuvoVIRTdJwQk9vuWm32QBCOLAIRkKwcqLiYlEBbG31tTzWZhnGc5JjGHk8zx17TV9UZEckXz75z0X5D8A7MbVIB4doB7w1LmXNE2Z5HTP73vVJ5VjWPyR+NJe6z746J7UMezCqc8e4feI5wLIST8heTDcUwcfZ8RgNnzDeyWyj5AYnMDdXIbyJnyH1vcnpAiu8kw2YwKRkXM9gzI40aRorvTQS9Hlr3Np3DjKM59fdgyElMF1Hvq5gd2hPp29PCv5SGYXIWXyU88u0FVu9174if8sz6s+QkIw1vNmgHkorXCLx2Q+yMkkAWkP4LfcseZTt3+HR6DFZ3L4bUKysJuGmlsPBQdn+tUa0dOjaYck9rArD4mF7gCWeTQf2Q+J014bblhTeqX5AyExcahHKvGM1EPV/9lj63RqaKEJ2Uk9AWv8ylAkyhEe9/0M8SWxc5NRp6VpSX8kRicALxsnSvq98fqExE57veqzpg9LF6NkGOVRaYXVV0lV8Aloux4JHZZsMtbtPya00IR4lBzfZvwUkBZmtd8eWUst8bufpHIeMLfutwLWTCpp6Mj+7KTKHYieMer85agpErizztios1dooQnJSG9jQ9I1WpS0dkw2ekLp0ktIHRhi1H2phFUrBhgPRGTbxCs/kurZ1zYA/VAj/sDTUJI4hxpvv55ATTjHuP0ZEVpgQgriRqMtSJZs5U9BLW2WlqYWEUWSi4BdZrSHSt+CXWT0eCeHFpiQgjndaBMXoKJ01Lx91wd9NLTAhJTEDGPXYdlJV47LDQ/5CTv3koQ4XHXe1T4uQQUbKy43PODtoQUmpGTGGezjbT0/qAz/YHi49SzvRRKkh/YKcLWTi1ERJJlhieHBpL46ISnyc4OdLKpKotBphoeS3AD2USep0s2YJ3AKKsBThgeSwAhCUuYnBnuZgwr09bO8/buGFpiQwOxp3AVIXk203Gd4kNtCC0tIJPzCYDf3IFK6Gk415Q70wNACExIJB2npOxfb2RhrfUxLtZ9fhRaWkMh4oOq1Ml40PMCRoYUlpMLnZ1JGPCr+2ljnjxDyl1jqB4rDiIa7DYJfGFpYQiLlYoMdjUdEWX8fGq7+OocWmJBI6aLFcF1saXUsWYKnGryWJEAQQtpmosGeTkAE3GsQeGBoYQmp0WHglNDCdtI65i7CLgwtLCEVYbGjTa0JnSZsKW90Q0hBK8Z+AI4PLQSpRPFQ+QQPxlSDoJ8PKWiF2FfTqS8LLQgJWkLc1a4mhRJScpPfdxTyT6GErKjxy5zRAaTNQkfbei+UgP0NXuraUEJW1PjpAMgNBvvqE2K6rjUIeBjX02T8dACkr8G+hsXc7kuKgxKb8dMBEOFdRxubjZL5rKGs8YSyhavYaf8rbcwbzwDIZEcb26xRhKVxomF7cgbX0fTmpwMgPn01S702vslRqC26WyA24+cOgAh7GHbaI1Eisx2Fkp7oxH3bTwdAfFOEpd1YKXQwFDG8pSyhavTm5w6ANOc2R335qKxOwkcavkskVJjYjZ+fAKTB2QadkdicwrnCUZgdALqXIVCNtv10AKQl+6gtRaMzExyFEYUn9jc/dwCkJctiqrcx31EYqROQOj5vfjoA0pL7HXVmLkpIAHItWfRPSBvfNz8dAGnJjxx1Zm3RDUR7GxT4a0iXrMZf2vccqQQnGfTmgCIFOcsgiBxepEgexk8HQFp+SrrqzWAUyDWOQqxAmmT55qcDIDtjdQyZgRNizU6qmfFzB0Ba8pSj3tyJApnhKISUNk6JvLb9dACkLaY46s10FMirjkKkVAGoCOPnDoD4VgiSisKFINcLmxyFOA9pUJTx0wGQllzgqDfri7oKtJxEfgX1J+9vfjoAsjP+xqA78mIK2rGkEAESefNzB0Bao6dBdwYgYDDC1qKjkRIwfn4CkJa0B7DNUXcGoQC+5fjjK1FfyjJ+OgDSGh846s7fowB+4PjjS1FPyjR+OgDSGq856s4QBKwD+DTqR9nGTwdAWmOBo+5Ib8HcGef44w+hXhR92k8HQFx5xFF37kAB3Ov44/egPoQyfhnXa/YlRzlz0A3xE9QGf+344+NRD0Js+znCzcEYxM8kx2f5VRE//lvHH78d1YfGn54zGoP4ucPxWf69iB+f7vjj/4JqQ+MPb4x0ANlKhD+MApjp+OM/RnWh8Yc3RDqAtvmp4/z8HgHzkUehmtD4wxshHcDOGeU4R2KruZOCA1gcgSJyhJmDMYifoA4glU8AOoE0ndAYxE/QT4CUDgHpBMIbJB1AZIeAqV0D0gmEN0ruACK6BkwxEIhOIJ0xBvETNBDINQxxGuoDQ4HTCUXuhvi5L2QoMJOByn0jsTMQiSoZaLTjj89D/QjxOUAHQFryjKPujEQBXJV4W/CynQAdAPFtE/59FMD5jj++CvWlTCdAB0Ba8qGj7nwTBXCi449v0wKGdaUsJ0AHQJrTAcD2kJ25jzQobw/UmzKcAB0A8S0L3h8FwMYg5ToBOgDSnGMNurM3CkBq/W9wFCCl1mBFOQE6ANKcbxtagxWGa3281JqDFuEE6ABIc0aGbg4qsD14eU6ADoA0Z2oM7cHHOwoxB+mRd9gwHQDxqcdxJwrkGkchViBN8nQCdADEpy3Y1SiQMwwKXPcOwUV/DtABkAb7G/TmFBTIwQZBTkC65OEE6ABIg1MMeiPOojDkKnCtoyDDkDZZnQAdALF+ekuocOHMdxRGcpdTJ8uZAB0AafBLR52ZixJwvQmQVsbEfydAB0AavBGyDkBLrnAUZkdRIYmJ7AToAEjjBRKVzgwwCHRmGQLVdCdAB0CEcww60xclpSWuS6REeEgnQAdAoMVKXfRlXZlp+K5NQuTAkPh9DtABEOE5R1t7HCVyo6NQnwDoWqZgNdoJ0AGQrmpDLrY2oszpGmT4LjmL6+jlBOgAyLkGO/tqmdO1O4AtjoJJMwNi/xygAyBTHG1sM4DOsWYnLec6eu0E6ADIckcbmxVzeKKMPlxLsxOgA0ibfgb7KjQDsC36GgS8PoSAFXcCdABpM8pgX4eHEvJdRwFfCiVghZ0AHUDaLK7CJ/bkKnipijoBOoB0OcxgVxNCCjrYIGgh/cpqfDtwfGghSDBc+3DKODmcmEBHQ7uiRSEFJaRCLHW0qdVqg0G5x+CtpLsQIaRtjjbYUxQxNicZBJZaAoSQtplksKdCegBa2UU7ArtmLHUJLTAhkdIFwEeOtrRKbS8KJhq81kWhhSUkUi412NE4RMSXDIIvCC0sIZHyrMGOBiIyXjAI/+XQwhJS4cO//0aEfN/wAA+EFpaQyHjQYD+XI9LiBa7tw7cB6B1aYEIioReArYb233sgUqYZvJjUOiOEAGMNdiNdgqNloOFBPgbwudACExKYbgD+bLCb/oicOYaHuTm0sIQE5haDvUgx3lo1MhTPx+YhJFW66064Vg13pYHoQsNDiQckJEVuM9jJy2pbleASw4Ot1xx4QlKih+HWTMZ3UCE6AXjH8HClNDUkJCLGG+zjzRjSfq18z/CAcgd6RGiBCSmJPoZ7fxkXooJ00Bbhrg8ptweEpMBMg10siynrz8p3DQ/apCXGCKkzZxtt4nxUmA6OjTAb41U9PyCkjuwK4A2DPSwqs+NvUZxl9HhSD52QOnKz0RZOQ4LfPNJzkJ2ESB1LfW822MFsJHzq+Wwdtj6EKKLL81O/FbPcezZpfQFC6sAPjLov2YG1jHteY5gEiZH+q9BCE5KRQ4zZfh8A2As15R+NnvC/qhgBRYiyi7HOX5MWBq31t9DTxgmRNkmEVJGfGHX9D1VK+PHlCwA2GSZlO4CvhhaaECPHaek7Vz3frDcFSTDC6BnfrvN3EalllZ93jTo+HAnR0VgzQMbjvBokFYl+nWXU7ReqHO/vyxcBbDROFEuIkdj5mVGn5XO4HxLlh8bJ2gHg66GFJqQNzlAdtej0lUgYOfH8vXHC1qZ0WEIqw+Ha/Naiy4+mcOr/aewDYIVx4t5iGTESWZDb60YdXqllwYhmPVm3ThJgsRtnjwSmswasNRmvtk8OLXjVUyVlPKKnroSECmz7Tw+9Hcnlan0yZ3hMZi0TJ0gluMtDX6fzOrtt9jRWTGkMCbkkJNaOPk065JyA7fA+hQEe8QEyritn3QmBNZK10f8i2ft+K+foQYl1koeFFpzUnis99HK7FgMlBoZ5TLTcJFzFWSYFMdTjtqpJ/x3x4E6PyZZxI2eb5MxwT12cyJXwR674HvKc+Fs58SQnbvLUQYn04zV1RnYH8IznAsgVIYuLEl86eF71yZinQUIkB7oCeN5zISRQgwtBrHwGwG88de5FvdImOcdbL/ZckD8yd4AYdW2+p65Jdyu2uy+IfXWCfRbmLc3YImRnfF4bcjZ5Bvr05PQWy0EemVfNU4lr026J5M6ZHim9zY3/QK5JOUga5cueC7VDbwh4OEgatNNrPp/gMxlLAez//3+NlMKe+m3f5DmkxiALjZJuxt6VLcef9MyABEASKxZkWDypNnwsVy5Z/tajem/Lqz65oSIB6aIplr6LuE0DPZKrypowHTWDdFsGvZEANV4vRxSw4Rs23Bh/1D5upN4cnOGKr0nHJL4w4k0g8j3IaTQkHcIDwlrSXhPF/pxxtzg09IOQnSNlwzdk9PDyhujDia4NR3g06WxqJZ//rNAPQtyLiryZccE3a1ZhJ056ZdlVa01uyagLr7OYR/XYA8DvMi58Y/HPDf0wxMzpnuXlmlqMxxjXn26AR/PxBN8CleAwjfHIut47GDBWHwYDWJWDUmwFMI7JHlGyH4DxukZZ13kFgJNCPxDJvwNRlniB5mOD1hpgZ5fwdNfQ7qwHv006ZqozITX9JBiqHVnzUBa5NvwxvxGDhfD+LOO1XlOzsVELfibfqy8F+gJ4KSfFaTiCX2iQCSmWXrr7ysvwmwC8oO3qSULsoruB9Tkq0nb9zDgm9MPVkIEA7s/pG78xNgEYzavetDkUwNwclaoxpI7hxZqrQPzrQV6aQxBPa+NJhn6TBvLddzmANQUo2kcAJgA4itPtzNEab/9xAevxgTqVdlwP0pK99Psyz21m87FEt5wsTfaX9NG5WVrQ3G9Vp7I31Z64xI7PLkgRG2Mh/q/HnBxIpko/bZW9qOC5lqs95nYQrxpxSwpWThnvAZisPRG71ryAyzcATAHwfgnzKo6FNSBJ5jTSb2coROqzVZUDxNs0+0wCmKpcxVmaYv4bgOcK/LRqOaRy9PlM6yZ5XxteomXEmkoey/QK7EcAToy09HRPDZ8VGX+ZobR2liEZoBeyHRcpkk56vVf0d6vLafaTup2+AcAFWt+wZ0En3O30bx+rOyL5zakAnlJZQs6FnKd8V0t9EVIKYhAnA5gTWPnbymRbrVthKZr6CIBpego+TmPnb9VDyBHN/vc4/W+m6b9ZoH9jtWdb7KLHLN0R8UqPBC9Ack+OCSkcbc/Bet159KfOkxiLkFyWoZEpR9tzsERrO7CXA6kER2lr6TzqEKQ6Vmq1Z8kDIKSyJcuP0wjDlREYVexjjd54SEkvHuqRWiEKfaoetGXpSFO38Q6AiXqoSqMnydBbzwymaxXipkTGVi29Plw/lXiKT5JH0oaP19j4GZpF2FSTsU4LdUrswN+xpRYhbmcH/XSHcJfWLFgbgTG7fMPP1ZiCyzTZia3YCcmJA7XK8dV6Qv6oXpGVGYMgv7VYP13uUFnkbOMArjIhYZNvJChpEIDztM/hKDVSOXh8UMfDmu7cfDys/99v9L8dq/92iP6tr2nwjfwGIYQQQgghhBBCCCGEEEIIIYQQQgghhBBCCEFo/gdiI8yJPoSn6gAAAABJRU5ErkJggg==;" parent="1" vertex="1">
          <mxGeometry x="730" y="170" width="30" height="30" as="geometry" />
        </mxCell>
        <mxCell id="ofSnRiUOqoa81dkVLpD3-4" value="" style="shape=image;verticalLabelPosition=bottom;labelBackgroundColor=default;verticalAlign=top;aspect=fixed;imageAspect=0;image=data:image/png,iVBORw0KGgoAAAANSUhEUgAAAQAAAAEACAYAAABccqhmAAAACXBIWXMAAAsTAAALEwEAmpwYAAAWxElEQVR4nO2dCbBWxZXH/yBgFAMiuKY06JioKIKiThytyaSC4gouMWOMcY2OE0UNTkSjKJpFJ+MYEQSJIMakYulMXMCIggYXUGeig4iiIlFAnXFFjCAgyzd1UudLvTwf73X3vX27b/f/V9VVUsJ3Ty/n3L7dZwEIIYQQQgghhBBCCCGEEEIIIYQQQgghhBBCSBxsD2BfAEMAnARgOIDRAMYCmAzgLm3TAMxs1aa1+P+T9d+M1t+Q3zoUwD76DEJIADoB2BnAMAAXA5gAYDqAlwCsAtCoqMmzFgB4AMB4lWUogL5cFYSUwyb6xj1HFX02gI8qVHLXtlxlnaCyD9S+EELa4fMADtFt9wwAf4pAmctq0peHAFwJYDCALbgSCAF2AXCBfoOviUBRq2rrADyjxm6QftoQkjybAjgawCQAb0agiLG0NwDcAuBIAN1CTxIhZSLfvwcDGAPg3QiULfb2IYDb1VDSGJDacgCAiQA+iECp6tre18PE/UJPJiEm9ABwNoD/iUB5UmsvAhgJoDeXIokNcb65DcAnEShK6m0lgCl6RUpIMDrpodXvI1CKtk7Z31FnnScA3KvefRP1LOJabZdpa/55jP6dyfpvntDfeEd/sxFZexjA4bxFIFWf5H9XFSPk4n9brw9vBnAJgBMBfAXAdh77Lm7ABwL4FoBL1VjMVAMRcixeAHAGDw2JT7rq9/3SAAv8Jf3EGKGONNtEONXbqiPTRQB+CeDlAOO0GMCZALqEHgyS1jXeqQD+WNEiXqNb72v1KqwP6svWGiPwM3UP/rSiMXwVwHfogkyKcnxFb7LFet01LHE3WXF3PlY/HZZUtHOS5xFixQAAszwvzrn67b5HxnOzJ4AfAnjO81g/AqB/6M6S+OmtJ+HrPN5li//77qE7GiE7a1zEbE9jv149DGM8PyGB6QzgXA1l9eHaepOGxRJzv4rxnuZjmYYpd+JkEOgW3MdbZ7YeHm7OYXZGxu40AHM8zM/jAHbj3ORLF3UtXV3yNlNSa/1t6M4lyEDdwpd5k/Cp3rYw6CjDQ77nS1xIkqnn3wDsGLpjGfBFANeXnDBlHoC9Q3eM+KeTOtOU9dZfrod6PTl5lbMlgKtLNASrAFzIs4F0EU+135W0WFbobQFPlMOzlRrhsvIlzgSwQ+hOkXIZprHlZXwz3qAebiQuxBjfWNIZwbsAjgrdIVKOG+9oPZwr480gjiskbr6sB7FF53uDHhAyo3GNnXoeKmEhvMK3QS0ZrFGCRed/un5mkBohySJeK2G7zyui+kdwlnHVuxTA/qE7Q8z4ZglVcugkkhZlOHutBHBc6I6Q9hmp326ukywnyXQTTdvdu8i14Xq9RiaRsYn62xex8E8D2DV0R4h3+mq+hUaBJjUMmHQkohjz6QUmcy2AUTztzQpR3qsKRn3KTUP30B3JnV765nadxEX028+agwC8XmD9zFGPRBLI8WNugcn7nRoQkjc9ANxTYB1JDQg6hlWMZL6dX9DBQw6FCGnGiIws4DAmqce+8OdfIpVEgy0qkAxC8sgT0hZHaQIX10SkO7X5q6TUgB7XJJ2S1ZcJIEhH7Kren65nSgwk8sTWmlPPZWKeYuQesXQjf8Jxrb2sLypSIhJv/4zjhPwngM04G8ShAtQdjmtOshzzgLnEe37Xqz7JHMPkj8SVzpr3wfWKkH4CJXj4TXWcADnpJ6QMRha4aqbHYAFc3XvFs4+QGIzARE5DdQMud/znccCJJ4Y7BpsxgMiSExydMqQyLSE+Oc9hXcpaZiixIYMc4/llx0BIFVzqmE9A0tGTdtjKMZOPRHYRUiU/cawCLT4GZCMn/jMcr/oICcEYx5sBxqG0wTUOg3kXB5MEpDOA3zqsW8lUTVrl7d/g4GjxOY4iCcxm6mpueyh4RGjBY2EHh6IdEtjDqjwkFvoAWOhQfETC2pH7FmqmQ0ivFH8gJCZ2cwglfiB3V3W5t+fWiaSUT2C95ZoW56Is2cvhvp8uviR2rrJc06tzLE3eDcDzDllYeX1CYqezbu1t1vbc3IKGRjlkWmH2VVIXXBzaLkFGhyWrLPP2HxhaaEIcUo6vs/wUkBJmyW+PbFMt8buf5HIe8GjqtwLnWg6IFHRkfXZSV7oAeNJyzZ+FRBHHneWWhTp3Di00IQXZxbIg6QepBgz9wtISSpVeQnLc+Y5FYgywPBCRbROv/EiuZ1/rAPRHQsziaSjJnN0sb78eQSIcb7n9uSy0wIR44kpLXRiKmrOJZSmvBQC6hhaaEI8esDZRgy/U/VP4NEuLd1hogQnxzNGWOnESakpXjds37ej9oQUmpCKmW+jFwrrGCZxt0clPWbmXZMQeuuZN9UN20rUrrLjUooM3hBaYkIoZZ6Efr+n5QW04y6JzK5jei2TIdlorILldgAQzvGjRMcmvTkiO/MxCT+bXJVDoKItOLdfYaUJypLdlnMBhqXn9iWMEITnzYwt9kQS6UbOv5du/J9JF+sbU5cXopGnjk4yOU3pZ7gIGImJus+jIdUgP8Xy8AMDrLfop/30h8xpYj+O/AHijxTj+rxaAreWdeAf83EJvbkWkbGlxqil3oDsiLbp0UCbqPr0eJe0jYzS1A4ex1NzF+2rqO9Nbs551r5v+a6THcIN+P8hyZu3SrQPlbzbZHaTGHXXPlfGcRQfkrCA1XrWoDsudwGfZVMfGZAyXID32s9CfZxEZB1jm+UuNrSz6TyNQTPmbbVukx5MW/R+EiJhoIfipSI8elouXRqCY8jcS9R853aL/NyESulpU95XiiZsjTV6hEahM+V+ti1ecJd01Ga5pdeEobkQOr6PVCnwIyp2Au/I3dKxTZYLFOByCCJiSihNDQeSNdDeNgHflvzvRt3+TQRZjMQkRXNssMxR2HtKnm973uyzsXK4ITa/62mrTMxmjFwzHY1noMOGhFpOXS7JPGoH2x4bKX27y0CMQkMkWgn4J+UAj0PaYUPnNU4ib6pXcwAVBvsPerKvjQgXQCPz1WFD57ZhnqFsSLxGs2o+plcqm9nkraASo/K5cbqFf/RCASywE3B35krMR4Jvfnf4W6+QiBOBRQ+EkOWju5GgEqPzFWRJropDPW6Q1FscGUuzuu24BRDn11Se3GI7ZavUirIxDc6pvViI57AT45g9TV/NrqJCrDIVao7sFkocRoPKXH2RmutMehQqZaSiU1EQneWyRU+xTnUKExUuysnxtpkkMr6lKqBqS0k6Ab35/XGe4Jj5S3Ywq869UQiVpGwEqv1+OtVgT4pvjnXMMhdkAoE8VAtWcOm+d6yx7XdhGdclkTKUgbzTxyi9VIUwi1HEnwDd/dSw0XAtScNQ7sw2FkRoBJM23aZ1kTYHbDcf2sSoCgExTFn3ftzAJUoedAN/81fMDi5R7XpOl7GKxIL/uU5CEidkIUPnDMMRiDXgtuHOMhSCsi5eWEaDyh2N7i/k/0qcgFxsK8bZPITIhpu/smGTJlfdiiAyckEoZ45oQg+LFIAMBZhmO+VifgzXdUIibOWNJfA5w2x8PkwznfJpPIV42FCLXDEApGQEqfz0zBElGYS/I9cIqQyFO9CVExlRpBKj88fFti/LhnUKfRH7FhwCkku9xfvPHyd+FLpw6KPPKrTnsBPjmj5cdQlfgMnVGWJt46aZUjQCVP246A1hnOMeDfQhwkuHD3/HxcOLVCFD564FpFe5/9PHw8w0fvsDHw4k3I0DlT68E/bk+Hj7a8OFMA1YtRQ/t6ORTH+YYzusVPh4+zvDh9/p4OPFmBFwNBz38qse0vNqNPh5+m+HDb/XxcBKNEaDyhyOoDv7G8OHjfTyceD8TMGnTI8lDmCsTDefp1z4e/lvDh9/g4+EkuBGg8ofnRsO5+g8fD59m+PB/9fFwEtQIUPnrlSJc5r50HjJ8+I98PJwEMwJU/nj4icUVb7B4ZC9XECSIEaDyx8UVhvMmulo6NAD1o4iTT/NNwkO/eAhqAPgJkJfy0wjER9BPAB4C5qf8NAJxEfQQkNeAeSo/jUA8BL0GpCNQvspPIxAHQR2BTN0Qp/h4OOkQugKnzy9DugIzGCheGAyUB1NDBgMxHDhOGA6cD3NC+uIMN3w4y4JXRxnJPGIsQ0aKlQn/HjzwLcOHv+vj4eQzlJnJh0agHnxgOL/f9PHwQw0fvk4TGBJ/+EjjRSMQN5sAWB+yMve+FotsOx8CkD/jM4cfjUAaacEH+BCAhUHCU0UCTxqBODnIYq639iGA5PpfaSgAS4OVT5XZe2kE4uNki9Jg3njJUAgWBy2XEKm7aQTiYlTo4qACy4NXT8i8/TQC8TA5hvLg4w2FeNinEBkRQ6HOGGQgMM7HMdbnYF1sKMTbnLGkFC8mWXLlfcPxHuFTiKEWE88Kwe7EWK6LnwPh+ILF/B/uU5C+FoIc4lOQhIlR+VvKRrfh6jncYg2IsfCGXAV+aCjIRT4FSZSYlb+ljDQC1WL66S2uwt6ZbSiMxC6TNL+z6yRrCvzKcGwfq0IY05sAKWVM0nnztyUzdwLVsChkHoDWnGMozAZfLomJUee3aZ1lrwvbWozp2VUINNBCoGFVCFRj6vjmb6sP3An443iLNdEfFYUlLjcUiHUC01b+JjQC/rjecE0srzIM37RIiBwYkjy2zin2KQaeNhzDB6oU6kpDoT4F0LNKwWpASm/+1nAnUC49VYdM1sZlqJDBFov2mCoFi5yUlb8JjUB5nGCxPr6KCtkCwBpDwaSYAclri5xTX30yyXDMVgPYHJFGJy2tWrAIyeHN3xruBIqz1HCNzEDE7onS+iFfclT+JjQC7uxtsU68RgBujP4WAv4QeZKz8jehEXDjCou1sgcCscRQwOeQH1T+vx4LOgvZ8UIdPrFvqYOVCgCVv+0xoREwY3cLvZqAgBxpIaiXemURQuVvf2xoBDrmKgu9GoKAdLUoVzQf6UPlNxsjGoH2WWCoU++pDgblVgtrJdWFUkX8sO91PPDL7e67iJ/APYmXntvfYix+gQgYYiGw5BJIle9T+SszAhcgXSZajIN45Aanq25FTCOWuiNvp42c3/xlGYHFSJMtAPzJcAze0cjcKLjZYvJOQ95JG6j85RiBFJPNnGnR/3GIiP0sBJ+D9LA1ALm/+cswAtsgPZ6y6P8+iIy5FsKLwUgJyZb8FpW/MiPwlo55ShxgoT9/QIR8z6IDdyA9JB6bb/5qjMClSI87LfTnnxBp8gLT8uFrAXwRadGlg0xJcn3FbX/HbKpjtbFxfFDHOiV2BrDOovx3D0TKFAsrJrnOUqOLBj691erE+vwEt6w+6axXfYtbbfsvTVD5hTEWeiNVgqNlH4uOyHXHlkgXORjsE1qIBOiT6IFfk94APrZItT8AkfOwhRG4OrSwhATmGgt9kc+fpAoZfpzofS4hprsbU8ef2hTclW/deRadEgtISI5cZ6Enz9fpHOkMi46t0O9lQnJiO4tbM2kno2Yhny1PcKMoakhIRIy30I9FMYT92vJdiw6KX8BeoQUmpCL66Zo31Y9TUEM20RLhpp2U2wNCcuAhC71YWGffh1MsOtrQFGOEpMyxljpxImqM7AJesujsy3p+QEiqbs6LLPRhfgrZj46xtHi5JA8l+XF1rjtim2+eNZlXEiLppvpebaEHM5HxqedTKWx9CFFkLc+2WP+iK3si43vPhuYXICQFzrdc+zcgUb/nZRaDID7SfxNaaEIKsqtFtJ+09wH0QqL8s6Ul/O86ekARonSxzPPXUDf6pL+FHrcckNGhhSbEkR9brvVZdQr4ceXLAFZZDMp6AF8NLTQhlhxskeZL2if6uZAFJgk0W7bXAWwVWmhCLLL8LLFc4xcjI7pa5gyQ9gCvBklNvF9nWK7tZ+vs7+/KnrrtsRkophAjsfNTyzUtn8N7I1MutBwsSYp4XGihCdkIQ3WN2qzpc5ExnTTRoc2AfahulYTExB5a/NZmLU/L4dS/IyTl89uWA/ca04iRyJzcXrVcw+9oWjAC4CiHrZM4WGzG0SOB2Vwd1hqWV9tDQgte91BJaVNjqpFOsqMzgLsd1u3loQWPdTCnOwymlFUiJAQ3Ob60sv/u3xi9LDOmNJu4XBISa0WfRov8fimXwyuFgZb50lMuGU3S8GRtaP2L/qEFrwtHW/pRN9tFoQUnyXOew7pcr6nxiAUjHAZabhKGc5SJJy5wuK2SxjXpyI0Ogy3tynLnnRCMdFyL13Ps3JErvnsdB/5aDjwpiasc1+D9vKYuTncAcxwnQK4ImVyUFHkB3eS49h5XJyFSAj0B/MFxIsRRgxNBbPkcgDsd19xcXvf58bd+wXFC/ouxA8Ryrc12XGvzNSEI8RQ49LLjxLymEVuEtMeX1GHHZY1JQND2HF6/7OQQedUylFgCjwhpi2EOIb3NJkZjxzZ/lZTOtgCed5yoDXpDwMNB0qSTXvOtd1xTCwDs8JdfI5XFDTztOGHNHINMNEp6W9aubN2e0TMDEuh2wPWKsJlt+CDOXLb8vUP23tZXfT1CdyJ3umtqJddJXKeOHtllZc2YrhpBuq7AurmH18txOWy4ug23vCrMpjBDxvQtcMXX0EYHs4gDiFwPcpoFSSVLKw8I06OzBuV8XHC3ODx0R0j7HOeYT6BlkzdEPw50MuzlUKSz0UY8v6T9JjVgAIA/Fpzw1RpV2C10Z4gzm2quyTUF18JCJvOoHz30oKZRsInT0QmhO0Ocksq4pJdrtBHRJ1fOJEMHj5btkZxLONWI3dXHo+h8b6DDWDocoYUYii6KtQDGMbAoSsQHf7zOUdF5/j8Ah4buECk/kKiIv0DLtlKvgljZJTx91LW76MFvQ5t4BTKgJ+FPgvO1ImsZi0WuDX/Eb8RgLrw/LXit12jRPtErYObsz+RaaG5JC6dpCH6uTibELzvr7qssxW8AeFbL1ZOM6KJZXleUuJDW62fGgaE7lyD7ALi9pG/8lm/90bzqzRtJAPFoiYuq2Z4EcLrGKhA3tgBwZglOPBu71dmVE0Og331nAfjAw0L7CMAEAIM41MbsD2CiflqVPR/vAziD3/qkLXrpiXJRz7GNtRd1y8nUZJ+ln47NAk9jv1aNCmP3SYfIgdAMTwux2eZpjbmc68WJY9UoTaTpc6wfpNElLgwtkInYpr0B4BYAx2uSk1SRyrjfADAJwJsVjKsYliNDd5rUP4z02wBeqWDBNreqcoB4nRaUFAemOuduPBbAv2v6tjJP8Ntrkjn6RIZ1k7KvDU/X9OKNittCvQL7gbqoxpiAUmQaojL+qkBq7SJNgn9OYTku4jud1KkFshKXeZr9e91OX667lINUEX14s3XS35ZnnKzPnAxglsoSciyeA/AdnRtCKqGTvvFmBl78G4tke0+3wpI0dSqAKXoKPk5vOq7VQ8jLWvx5nP6dKfpv5uhvvOdYFtt3k4NaBu2Q4AwEcGvJXoVsbY/BCt15SNIXQqJLQnK25oqnApfvQyG5HVjLgdSCQVpa+l0aA2ellxwOYzUOgJDapiw/WCPYykhKknpbpjcektKLh3okKbpqdqKJBSvSpNYWA7gZwGFUepITu+iZwTTNQtzIpK3V1Osj9VOJSThI9kjY8NfUN366RhE2EmnLNVGn+A78A0tqEWJ2drC37hDkMPExAB9GoMwm3/CPqU/B2RrsxEpLhJTEThrgMkJPyO/XK7KykmKatJUaJDVNazKO0LONHTnLhIQNvhGnpMEaDCNJLq9QJZWDx7u03acejC3bffr/7tS/O0b/7bn6W19X5xt5BiGEEEIIIYQQQgghhBBCCCGEEEIIIYQQQghBaP4f03aV/qoKc5cAAAAASUVORK5CYII=;" parent="1" vertex="1">
          <mxGeometry x="770" y="170" width="30" height="30" as="geometry" />
        </mxCell>
        <mxCell id="ofSnRiUOqoa81dkVLpD3-6" value="View" style="outlineConnect=0;dashed=0;verticalLabelPosition=bottom;verticalAlign=top;align=center;html=1;shape=mxgraph.aws3.assignment_task;fillColor=#ACACAC;gradientColor=none;" parent="1" vertex="1">
          <mxGeometry x="380" y="260" width="100" height="100" as="geometry" />
        </mxCell>
        <mxCell id="ofSnRiUOqoa81dkVLpD3-7" value="Create" style="sketch=0;pointerEvents=1;shadow=0;dashed=0;html=1;strokeColor=none;fillColor=#505050;labelPosition=center;verticalLabelPosition=bottom;verticalAlign=top;outlineConnect=0;align=center;shape=mxgraph.office.concepts.tasks;" parent="1" vertex="1">
          <mxGeometry x="250" y="250" width="100" height="100" as="geometry" />
        </mxCell>
        <mxCell id="ofSnRiUOqoa81dkVLpD3-11" value="Distribute" style="sketch=0;pointerEvents=1;shadow=0;dashed=0;html=1;strokeColor=none;fillColor=#505050;labelPosition=center;verticalLabelPosition=bottom;verticalAlign=top;outlineConnect=0;align=center;shape=mxgraph.office.users.distribution_group;" parent="1" vertex="1">
          <mxGeometry x="510" y="250" width="100" height="110" as="geometry" />
        </mxCell>
        <mxCell id="ofSnRiUOqoa81dkVLpD3-12" value="Grades" style="shape=image;html=1;verticalAlign=top;verticalLabelPosition=bottom;labelBackgroundColor=#ffffff;imageAspect=0;aspect=fixed;image=https://cdn0.iconfinder.com/data/icons/education-1006/32/education_test_exam_school_student_knowledge_study_examination_college_classroom-128.png;imageBackground=none;" parent="1" vertex="1">
          <mxGeometry x="640" y="260" width="100" height="100" as="geometry" />
        </mxCell>
      </root>
    </mxGraphModel>
  </diagram>
</mxfile>
